<svg xmlns="http://www.w3.org/2000/svg" xmlns:xlink="http://www.w3.org/1999/xlink" width="1446" zoomAndPan="magnify" viewBox="0 0 1084.5 46.499999" height="62" preserveAspectRatio="xMidYMid meet" version="1.2"><defs><clipPath id="d272d98d8a"><path d="M 71 22 L 96 22 L 96 45.261719 L 71 45.261719 Z M 71 22 "/></clipPath><clipPath id="0c62cfee88"><path d="M 27 22 L 51 22 L 51 45.261719 L 27 45.261719 Z M 27 22 "/></clipPath><clipPath id="5e3df51db1"><path d="M 49 22 L 73 22 L 73 45.261719 L 49 45.261719 Z M 49 22 "/></clipPath><clipPath id="fd87699247"><path d="M 5.519531 0 L 29 0 L 29 24 L 5.519531 24 Z M 5.519531 0 "/></clipPath><clipPath id="855564e8d7"><path d="M 5.519531 22 L 29 22 L 29 45.261719 L 5.519531 45.261719 Z M 5.519531 22 "/></clipPath><clipPath id="7b4f99bbc7"><path d="M 116 22 L 140 22 L 140 45.261719 L 116 45.261719 Z M 116 22 "/></clipPath><clipPath id="7c8583f9a8"><path d="M 94 22 L 118 22 L 118 45.261719 L 94 45.261719 Z M 94 22 "/></clipPath><clipPath id="4d2b67abc8"><path d="M 160 22 L 184 22 L 184 45.261719 L 160 45.261719 Z M 160 22 "/></clipPath><clipPath id="de204b17a3"><path d="M 138 22 L 162 22 L 162 45.261719 L 138 45.261719 Z M 138 22 "/></clipPath><clipPath id="0994dd0efe"><path d="M 250 22 L 274 22 L 274 45.261719 L 250 45.261719 Z M 250 22 "/></clipPath><clipPath id="9facab8a77"><path d="M 206 22 L 230 22 L 230 45.261719 L 206 45.261719 Z M 206 22 "/></clipPath><clipPath id="cf5576f7f7"><path d="M 228 22 L 252 22 L 252 45.261719 L 228 45.261719 Z M 228 22 "/></clipPath><clipPath id="b4459a05e4"><path d="M 184.332031 0 L 207 0 L 207 23 L 184.332031 23 Z M 184.332031 0 "/></clipPath><clipPath id="2578b33b0b"><path d="M 184.332031 0 L 208 0 L 208 24 L 184.332031 24 Z M 184.332031 0 "/></clipPath><clipPath id="91c11ec302"><path d="M 184.332031 22 L 207 22 L 207 45 L 184.332031 45 Z M 184.332031 22 "/></clipPath><clipPath id="9fb9e8a81e"><path d="M 184.332031 22 L 208 22 L 208 45.261719 L 184.332031 45.261719 Z M 184.332031 22 "/></clipPath><clipPath id="14dda6de4a"><path d="M 295 22 L 319 22 L 319 45.261719 L 295 45.261719 Z M 295 22 "/></clipPath><clipPath id="f24c3fcf8b"><path d="M 272 22 L 297 22 L 297 45.261719 L 272 45.261719 Z M 272 22 "/></clipPath><clipPath id="393ef489b8"><path d="M 339 22 L 363 22 L 363 45.261719 L 339 45.261719 Z M 339 22 "/></clipPath><clipPath id="171afb65a7"><path d="M 317 22 L 341 22 L 341 45.261719 L 317 45.261719 Z M 317 22 "/></clipPath><clipPath id="18df74c3bc"><path d="M 518 0 L 541.96875 0 L 541.96875 24 L 518 24 Z M 518 0 "/></clipPath><clipPath id="446b7f75ae"><path d="M 429 22 L 453 22 L 453 45.261719 L 429 45.261719 Z M 429 22 "/></clipPath><clipPath id="67b7fecdb9"><path d="M 385 22 L 409 22 L 409 45.261719 L 385 45.261719 Z M 385 22 "/></clipPath><clipPath id="b1e90af012"><path d="M 407 22 L 431 22 L 431 45.261719 L 407 45.261719 Z M 407 22 "/></clipPath><clipPath id="c7be0ccaba"><path d="M 363.140625 0 L 386 0 L 386 23 L 363.140625 23 Z M 363.140625 0 "/></clipPath><clipPath id="66f9cb0fde"><path d="M 363.140625 0 L 387 0 L 387 24 L 363.140625 24 Z M 363.140625 0 "/></clipPath><clipPath id="292ac09f0b"><path d="M 363.140625 22 L 386 22 L 386 45 L 363.140625 45 Z M 363.140625 22 "/></clipPath><clipPath id="e3552687d0"><path d="M 363.140625 22 L 387 22 L 387 45.261719 L 363.140625 45.261719 Z M 363.140625 22 "/></clipPath><clipPath id="1157745c75"><path d="M 473 22 L 497 22 L 497 45.261719 L 473 45.261719 Z M 473 22 "/></clipPath><clipPath id="fc4776626f"><path d="M 451 22 L 475 22 L 475 45.261719 L 451 45.261719 Z M 451 22 "/></clipPath><clipPath id="393db275ee"><path d="M 518 22 L 541.96875 22 L 541.96875 45.261719 L 518 45.261719 Z M 518 22 "/></clipPath><clipPath id="91011a1e31"><path d="M 496 22 L 520 22 L 520 45.261719 L 496 45.261719 Z M 496 22 "/></clipPath><clipPath id="733068b14c"><path d="M 696 0 L 720.78125 0 L 720.78125 24 L 696 24 Z M 696 0 "/></clipPath><clipPath id="a80056c1c0"><path d="M 608 22 L 632 22 L 632 45.261719 L 608 45.261719 Z M 608 22 "/></clipPath><clipPath id="127b855e7f"><path d="M 564 22 L 588 22 L 588 45.261719 L 564 45.261719 Z M 564 22 "/></clipPath><clipPath id="0546b7bef4"><path d="M 586 22 L 610 22 L 610 45.261719 L 586 45.261719 Z M 586 22 "/></clipPath><clipPath id="d6c0133e22"><path d="M 541.953125 0 L 566 0 L 566 24 L 541.953125 24 Z M 541.953125 0 "/></clipPath><clipPath id="178615dcd4"><path d="M 541.953125 22 L 566 22 L 566 45.261719 L 541.953125 45.261719 Z M 541.953125 22 "/></clipPath><clipPath id="58d01a9ad7"><path d="M 652 22 L 676 22 L 676 45.261719 L 652 45.261719 Z M 652 22 "/></clipPath><clipPath id="38a594c4f8"><path d="M 630 22 L 654 22 L 654 45.261719 L 630 45.261719 Z M 630 22 "/></clipPath><clipPath id="15de673f71"><path d="M 696 22 L 720.78125 22 L 720.78125 45.261719 L 696 45.261719 Z M 696 22 "/></clipPath><clipPath id="efe7d6897a"><path d="M 674 22 L 698 22 L 698 45.261719 L 674 45.261719 Z M 674 22 "/></clipPath><clipPath id="51f177b26f"><path d="M 787 22 L 811 22 L 811 45.261719 L 787 45.261719 Z M 787 22 "/></clipPath><clipPath id="b48af64013"><path d="M 742 22 L 767 22 L 767 45.261719 L 742 45.261719 Z M 742 22 "/></clipPath><clipPath id="7b6483c810"><path d="M 765 22 L 789 22 L 789 45.261719 L 765 45.261719 Z M 765 22 "/></clipPath><clipPath id="1014a8a707"><path d="M 720.765625 0 L 744 0 L 744 24 L 720.765625 24 Z M 720.765625 0 "/></clipPath><clipPath id="d9333886c2"><path d="M 720.765625 22 L 744 22 L 744 45.261719 L 720.765625 45.261719 Z M 720.765625 22 "/></clipPath><clipPath id="0763a4b8f1"><path d="M 831 22 L 855 22 L 855 45.261719 L 831 45.261719 Z M 831 22 "/></clipPath><clipPath id="586503415f"><path d="M 809 22 L 833 22 L 833 45.261719 L 809 45.261719 Z M 809 22 "/></clipPath><clipPath id="33efb97edf"><path d="M 875 22 L 899 22 L 899 45.261719 L 875 45.261719 Z M 875 22 "/></clipPath><clipPath id="5fd9348445"><path d="M 853 22 L 877 22 L 877 45.261719 L 853 45.261719 Z M 853 22 "/></clipPath><clipPath id="6f7e9b50a3"><path d="M 966 22 L 990 22 L 990 45.261719 L 966 45.261719 Z M 966 22 "/></clipPath><clipPath id="0bd219548a"><path d="M 921 22 L 945 22 L 945 45.261719 L 921 45.261719 Z M 921 22 "/></clipPath><clipPath id="b897a6adf8"><path d="M 943 22 L 967 22 L 967 45.261719 L 943 45.261719 Z M 943 22 "/></clipPath><clipPath id="1a05e0990d"><path d="M 899.574219 0 L 923 0 L 923 24 L 899.574219 24 Z M 899.574219 0 "/></clipPath><clipPath id="5335cbbbf6"><path d="M 899.574219 22 L 923 22 L 923 45.261719 L 899.574219 45.261719 Z M 899.574219 22 "/></clipPath><clipPath id="2992141676"><path d="M 1010 22 L 1034 22 L 1034 45.261719 L 1010 45.261719 Z M 1010 22 "/></clipPath><clipPath id="c0ce0b018a"><path d="M 988 22 L 1012 22 L 1012 45.261719 L 988 45.261719 Z M 988 22 "/></clipPath><clipPath id="3a6d70c796"><path d="M 1054 22 L 1078 22 L 1078 45.261719 L 1054 45.261719 Z M 1054 22 "/></clipPath><clipPath id="95938a4340"><path d="M 1032 22 L 1056 22 L 1056 45.261719 L 1032 45.261719 Z M 1032 22 "/></clipPath></defs><g id="63458bec12"><path style=" stroke:none;fill-rule:nonzero;fill:#faf9f5;fill-opacity:1;" d="M 50.292969 0.480469 L 72.4375 0.480469 L 72.4375 22.625 L 50.292969 22.625 Z M 50.292969 0.480469 "/><path style=" stroke:none;fill-rule:nonzero;fill:#231f20;fill-opacity:1;" d="M 72.914062 23.105469 L 49.816406 23.105469 L 49.816406 0.00390625 L 72.914062 0.00390625 Z M 50.769531 22.148438 L 71.960938 22.148438 L 71.960938 0.957031 L 50.769531 0.957031 Z M 50.769531 22.148438 "/><path style=" stroke:none;fill-rule:nonzero;fill:#231f20;fill-opacity:1;" d="M 72.4375 0.480469 L 94.585938 0.480469 L 94.585938 22.625 L 72.4375 22.625 Z M 72.4375 0.480469 "/><path style=" stroke:none;fill-rule:nonzero;fill:#231f20;fill-opacity:1;" d="M 95.0625 23.105469 L 71.960938 23.105469 L 71.960938 0.00390625 L 95.0625 0.00390625 Z M 72.914062 22.148438 L 94.109375 22.148438 L 94.109375 0.957031 L 72.914062 0.957031 Z M 72.914062 22.148438 "/><path style=" stroke:none;fill-rule:nonzero;fill:#faf9f5;fill-opacity:1;" d="M 94.585938 0.480469 L 116.734375 0.480469 L 116.734375 22.625 L 94.585938 22.625 Z M 94.585938 0.480469 "/><path style=" stroke:none;fill-rule:nonzero;fill:#231f20;fill-opacity:1;" d="M 117.210938 23.105469 L 94.109375 23.105469 L 94.109375 0.00390625 L 117.210938 0.00390625 Z M 95.0625 22.148438 L 116.253906 22.148438 L 116.253906 0.957031 L 95.0625 0.957031 Z M 95.0625 22.148438 "/><path style=" stroke:none;fill-rule:nonzero;fill:#231f20;fill-opacity:1;" d="M 116.734375 0.480469 L 138.878906 0.480469 L 138.878906 22.625 L 116.734375 22.625 Z M 116.734375 0.480469 "/><path style=" stroke:none;fill-rule:nonzero;fill:#231f20;fill-opacity:1;" d="M 139.355469 23.105469 L 116.253906 23.105469 L 116.253906 0.00390625 L 139.355469 0.00390625 Z M 117.210938 22.148438 L 138.402344 22.148438 L 138.402344 0.957031 L 117.210938 0.957031 Z M 117.210938 22.148438 "/><path style=" stroke:none;fill-rule:nonzero;fill:#faf9f5;fill-opacity:1;" d="M 138.878906 0.480469 L 161.027344 0.480469 L 161.027344 22.625 L 138.878906 22.625 Z M 138.878906 0.480469 "/><path style=" stroke:none;fill-rule:nonzero;fill:#231f20;fill-opacity:1;" d="M 161.503906 23.105469 L 138.402344 23.105469 L 138.402344 0.00390625 L 161.503906 0.00390625 Z M 139.355469 22.148438 L 160.550781 22.148438 L 160.550781 0.957031 L 139.355469 0.957031 Z M 139.355469 22.148438 "/><path style=" stroke:none;fill-rule:nonzero;fill:#231f20;fill-opacity:1;" d="M 161.027344 0.480469 L 183.171875 0.480469 L 183.171875 22.625 L 161.027344 22.625 Z M 161.027344 0.480469 "/><path style=" stroke:none;fill-rule:nonzero;fill:#231f20;fill-opacity:1;" d="M 183.648438 23.105469 L 160.550781 23.105469 L 160.550781 0.00390625 L 183.648438 0.00390625 Z M 161.503906 22.148438 L 182.695312 22.148438 L 182.695312 0.957031 L 161.503906 0.957031 Z M 161.503906 22.148438 "/><path style=" stroke:none;fill-rule:nonzero;fill:#faf9f5;fill-opacity:1;" d="M 94.585938 44.773438 L 72.4375 44.773438 L 72.4375 22.625 L 94.585938 22.625 Z M 94.585938 44.773438 "/><g clip-rule="nonzero" clip-path="url(#d272d98d8a)"><path style=" stroke:none;fill-rule:nonzero;fill:#231f20;fill-opacity:1;" d="M 95.0625 45.25 L 71.960938 45.25 L 71.960938 22.148438 L 95.0625 22.148438 Z M 72.914062 44.296875 L 94.109375 44.296875 L 94.109375 23.105469 L 72.914062 23.105469 Z M 72.914062 44.296875 "/></g><path style=" stroke:none;fill-rule:nonzero;fill:#231f20;fill-opacity:1;" d="M 28.144531 0.480469 L 50.292969 0.480469 L 50.292969 22.625 L 28.144531 22.625 Z M 28.144531 0.480469 "/><path style=" stroke:none;fill-rule:nonzero;fill:#231f20;fill-opacity:1;" d="M 50.769531 23.105469 L 27.667969 23.105469 L 27.667969 0.00390625 L 50.769531 0.00390625 Z M 28.621094 22.148438 L 49.816406 22.148438 L 49.816406 0.957031 L 28.621094 0.957031 Z M 28.621094 22.148438 "/><path style=" stroke:none;fill-rule:nonzero;fill:#faf9f5;fill-opacity:1;" d="M 50.292969 44.773438 L 28.144531 44.773438 L 28.144531 22.625 L 50.292969 22.625 Z M 50.292969 44.773438 "/><g clip-rule="nonzero" clip-path="url(#0c62cfee88)"><path style=" stroke:none;fill-rule:nonzero;fill:#231f20;fill-opacity:1;" d="M 50.769531 45.25 L 27.667969 45.25 L 27.667969 22.148438 L 50.769531 22.148438 Z M 28.621094 44.296875 L 49.816406 44.296875 L 49.816406 23.105469 L 28.621094 23.105469 Z M 28.621094 44.296875 "/></g><path style=" stroke:none;fill-rule:nonzero;fill:#231f20;fill-opacity:1;" d="M 72.4375 44.773438 L 50.292969 44.773438 L 50.292969 22.625 L 72.4375 22.625 Z M 72.4375 44.773438 "/><g clip-rule="nonzero" clip-path="url(#5e3df51db1)"><path style=" stroke:none;fill-rule:nonzero;fill:#231f20;fill-opacity:1;" d="M 72.914062 45.25 L 49.816406 45.25 L 49.816406 22.148438 L 72.914062 22.148438 Z M 50.769531 44.296875 L 71.960938 44.296875 L 71.960938 23.105469 L 50.769531 23.105469 Z M 50.769531 44.296875 "/></g><path style=" stroke:none;fill-rule:nonzero;fill:#faf9f5;fill-opacity:1;" d="M 6 0.480469 L 28.144531 0.480469 L 28.144531 22.625 L 6 22.625 Z M 6 0.480469 "/><g clip-rule="nonzero" clip-path="url(#fd87699247)"><path style=" stroke:none;fill-rule:nonzero;fill:#231f20;fill-opacity:1;" d="M 28.621094 23.105469 L 5.519531 23.105469 L 5.519531 0.00390625 L 28.621094 0.00390625 Z M 6.476562 22.148438 L 27.667969 22.148438 L 27.667969 0.957031 L 6.476562 0.957031 Z M 6.476562 22.148438 "/></g><path style=" stroke:none;fill-rule:nonzero;fill:#231f20;fill-opacity:1;" d="M 28.144531 44.773438 L 6 44.773438 L 6 22.625 L 28.144531 22.625 Z M 28.144531 44.773438 "/><g clip-rule="nonzero" clip-path="url(#855564e8d7)"><path style=" stroke:none;fill-rule:nonzero;fill:#231f20;fill-opacity:1;" d="M 28.621094 45.25 L 5.519531 45.25 L 5.519531 22.148438 L 28.621094 22.148438 Z M 6.476562 44.296875 L 27.667969 44.296875 L 27.667969 23.105469 L 6.476562 23.105469 Z M 6.476562 44.296875 "/></g><path style=" stroke:none;fill-rule:nonzero;fill:#faf9f5;fill-opacity:1;" d="M 138.878906 44.773438 L 116.734375 44.773438 L 116.734375 22.625 L 138.878906 22.625 Z M 138.878906 44.773438 "/><g clip-rule="nonzero" clip-path="url(#7b4f99bbc7)"><path style=" stroke:none;fill-rule:nonzero;fill:#231f20;fill-opacity:1;" d="M 139.355469 45.25 L 116.253906 45.25 L 116.253906 22.148438 L 139.355469 22.148438 Z M 117.210938 44.296875 L 138.402344 44.296875 L 138.402344 23.105469 L 117.210938 23.105469 Z M 117.210938 44.296875 "/></g><path style=" stroke:none;fill-rule:nonzero;fill:#231f20;fill-opacity:1;" d="M 116.734375 44.773438 L 94.585938 44.773438 L 94.585938 22.625 L 116.734375 22.625 Z M 116.734375 44.773438 "/><g clip-rule="nonzero" clip-path="url(#7c8583f9a8)"><path style=" stroke:none;fill-rule:nonzero;fill:#231f20;fill-opacity:1;" d="M 117.210938 45.25 L 94.109375 45.25 L 94.109375 22.148438 L 117.210938 22.148438 Z M 95.0625 44.296875 L 116.253906 44.296875 L 116.253906 23.105469 L 95.0625 23.105469 Z M 95.0625 44.296875 "/></g><path style=" stroke:none;fill-rule:nonzero;fill:#faf9f5;fill-opacity:1;" d="M 183.171875 44.773438 L 161.027344 44.773438 L 161.027344 22.625 L 183.171875 22.625 Z M 183.171875 44.773438 "/><g clip-rule="nonzero" clip-path="url(#4d2b67abc8)"><path style=" stroke:none;fill-rule:nonzero;fill:#231f20;fill-opacity:1;" d="M 183.648438 45.25 L 160.550781 45.25 L 160.550781 22.148438 L 183.648438 22.148438 Z M 161.503906 44.296875 L 182.695312 44.296875 L 182.695312 23.105469 L 161.503906 23.105469 Z M 161.503906 44.296875 "/></g><path style=" stroke:none;fill-rule:nonzero;fill:#231f20;fill-opacity:1;" d="M 161.027344 44.773438 L 138.878906 44.773438 L 138.878906 22.625 L 161.027344 22.625 Z M 161.027344 44.773438 "/><g clip-rule="nonzero" clip-path="url(#de204b17a3)"><path style=" stroke:none;fill-rule:nonzero;fill:#231f20;fill-opacity:1;" d="M 161.503906 45.25 L 138.402344 45.25 L 138.402344 22.148438 L 161.503906 22.148438 Z M 139.355469 44.296875 L 160.550781 44.296875 L 160.550781 23.105469 L 139.355469 23.105469 Z M 139.355469 44.296875 "/></g><path style=" stroke:none;fill-rule:nonzero;fill:#faf9f5;fill-opacity:1;" d="M 229.101562 0.480469 L 251.25 0.480469 L 251.25 22.625 L 229.101562 22.625 Z M 229.101562 0.480469 "/><path style=" stroke:none;fill-rule:nonzero;fill:#231f20;fill-opacity:1;" d="M 251.726562 23.105469 L 228.625 23.105469 L 228.625 0.00390625 L 251.726562 0.00390625 Z M 229.578125 22.148438 L 250.773438 22.148438 L 250.773438 0.957031 L 229.578125 0.957031 Z M 229.578125 22.148438 "/><path style=" stroke:none;fill-rule:nonzero;fill:#231f20;fill-opacity:1;" d="M 251.25 0.480469 L 273.394531 0.480469 L 273.394531 22.625 L 251.25 22.625 Z M 251.25 0.480469 "/><path style=" stroke:none;fill-rule:nonzero;fill:#231f20;fill-opacity:1;" d="M 273.875 23.105469 L 250.773438 23.105469 L 250.773438 0.00390625 L 273.875 0.00390625 Z M 251.726562 22.148438 L 272.917969 22.148438 L 272.917969 0.957031 L 251.726562 0.957031 Z M 251.726562 22.148438 "/><path style=" stroke:none;fill-rule:nonzero;fill:#faf9f5;fill-opacity:1;" d="M 273.394531 0.480469 L 295.542969 0.480469 L 295.542969 22.625 L 273.394531 22.625 Z M 273.394531 0.480469 "/><path style=" stroke:none;fill-rule:nonzero;fill:#231f20;fill-opacity:1;" d="M 296.019531 23.105469 L 272.917969 23.105469 L 272.917969 0.00390625 L 296.019531 0.00390625 Z M 273.875 22.148438 L 295.066406 22.148438 L 295.066406 0.957031 L 273.875 0.957031 Z M 273.875 22.148438 "/><path style=" stroke:none;fill-rule:nonzero;fill:#231f20;fill-opacity:1;" d="M 295.542969 0.480469 L 317.691406 0.480469 L 317.691406 22.625 L 295.542969 22.625 Z M 295.542969 0.480469 "/><path style=" stroke:none;fill-rule:nonzero;fill:#231f20;fill-opacity:1;" d="M 318.167969 23.105469 L 295.066406 23.105469 L 295.066406 0.00390625 L 318.167969 0.00390625 Z M 296.019531 22.148438 L 317.214844 22.148438 L 317.214844 0.957031 L 296.019531 0.957031 Z M 296.019531 22.148438 "/><path style=" stroke:none;fill-rule:nonzero;fill:#faf9f5;fill-opacity:1;" d="M 317.691406 0.480469 L 339.835938 0.480469 L 339.835938 22.625 L 317.691406 22.625 Z M 317.691406 0.480469 "/><path style=" stroke:none;fill-rule:nonzero;fill:#231f20;fill-opacity:1;" d="M 340.3125 23.105469 L 317.214844 23.105469 L 317.214844 0.00390625 L 340.3125 0.00390625 Z M 318.167969 22.148438 L 339.359375 22.148438 L 339.359375 0.957031 L 318.167969 0.957031 Z M 318.167969 22.148438 "/><path style=" stroke:none;fill-rule:nonzero;fill:#231f20;fill-opacity:1;" d="M 339.835938 0.480469 L 361.984375 0.480469 L 361.984375 22.625 L 339.835938 22.625 Z M 339.835938 0.480469 "/><path style=" stroke:none;fill-rule:nonzero;fill:#231f20;fill-opacity:1;" d="M 362.460938 23.105469 L 339.359375 23.105469 L 339.359375 0.00390625 L 362.460938 0.00390625 Z M 340.3125 22.148438 L 361.507812 22.148438 L 361.507812 0.957031 L 340.3125 0.957031 Z M 340.3125 22.148438 "/><path style=" stroke:none;fill-rule:nonzero;fill:#faf9f5;fill-opacity:1;" d="M 273.394531 44.773438 L 251.25 44.773438 L 251.25 22.625 L 273.394531 22.625 Z M 273.394531 44.773438 "/><g clip-rule="nonzero" clip-path="url(#0994dd0efe)"><path style=" stroke:none;fill-rule:nonzero;fill:#231f20;fill-opacity:1;" d="M 273.875 45.25 L 250.773438 45.25 L 250.773438 22.148438 L 273.875 22.148438 Z M 251.726562 44.296875 L 272.917969 44.296875 L 272.917969 23.105469 L 251.726562 23.105469 Z M 251.726562 44.296875 "/></g><path style=" stroke:none;fill-rule:nonzero;fill:#231f20;fill-opacity:1;" d="M 206.957031 0.480469 L 229.101562 0.480469 L 229.101562 22.625 L 206.957031 22.625 Z M 206.957031 0.480469 "/><path style=" stroke:none;fill-rule:nonzero;fill:#231f20;fill-opacity:1;" d="M 229.578125 23.105469 L 206.480469 23.105469 L 206.480469 0.00390625 L 229.578125 0.00390625 Z M 207.433594 22.148438 L 228.625 22.148438 L 228.625 0.957031 L 207.433594 0.957031 Z M 207.433594 22.148438 "/><path style=" stroke:none;fill-rule:nonzero;fill:#faf9f5;fill-opacity:1;" d="M 229.101562 44.773438 L 206.957031 44.773438 L 206.957031 22.625 L 229.101562 22.625 Z M 229.101562 44.773438 "/><g clip-rule="nonzero" clip-path="url(#9facab8a77)"><path style=" stroke:none;fill-rule:nonzero;fill:#231f20;fill-opacity:1;" d="M 229.578125 45.25 L 206.480469 45.25 L 206.480469 22.148438 L 229.578125 22.148438 Z M 207.433594 44.296875 L 228.625 44.296875 L 228.625 23.105469 L 207.433594 23.105469 Z M 207.433594 44.296875 "/></g><path style=" stroke:none;fill-rule:nonzero;fill:#231f20;fill-opacity:1;" d="M 251.25 44.773438 L 229.101562 44.773438 L 229.101562 22.625 L 251.25 22.625 Z M 251.25 44.773438 "/><g clip-rule="nonzero" clip-path="url(#cf5576f7f7)"><path style=" stroke:none;fill-rule:nonzero;fill:#231f20;fill-opacity:1;" d="M 251.726562 45.25 L 228.625 45.25 L 228.625 22.148438 L 251.726562 22.148438 Z M 229.578125 44.296875 L 250.773438 44.296875 L 250.773438 23.105469 L 229.578125 23.105469 Z M 229.578125 44.296875 "/></g><g clip-rule="nonzero" clip-path="url(#b4459a05e4)"><path style=" stroke:none;fill-rule:nonzero;fill:#faf9f5;fill-opacity:1;" d="M 184.808594 0.480469 L 206.957031 0.480469 L 206.957031 22.625 L 184.808594 22.625 Z M 184.808594 0.480469 "/></g><g clip-rule="nonzero" clip-path="url(#2578b33b0b)"><path style=" stroke:none;fill-rule:nonzero;fill:#231f20;fill-opacity:1;" d="M 207.433594 23.105469 L 184.332031 23.105469 L 184.332031 0.00390625 L 207.433594 0.00390625 Z M 185.285156 22.148438 L 206.480469 22.148438 L 206.480469 0.957031 L 185.285156 0.957031 Z M 185.285156 22.148438 "/></g><g clip-rule="nonzero" clip-path="url(#91c11ec302)"><path style=" stroke:none;fill-rule:nonzero;fill:#231f20;fill-opacity:1;" d="M 206.957031 44.773438 L 184.808594 44.773438 L 184.808594 22.625 L 206.957031 22.625 Z M 206.957031 44.773438 "/></g><g clip-rule="nonzero" clip-path="url(#9fb9e8a81e)"><path style=" stroke:none;fill-rule:nonzero;fill:#231f20;fill-opacity:1;" d="M 207.433594 45.25 L 184.332031 45.25 L 184.332031 22.148438 L 207.433594 22.148438 Z M 185.285156 44.296875 L 206.480469 44.296875 L 206.480469 23.105469 L 185.285156 23.105469 Z M 185.285156 44.296875 "/></g><path style=" stroke:none;fill-rule:nonzero;fill:#faf9f5;fill-opacity:1;" d="M 317.691406 44.773438 L 295.542969 44.773438 L 295.542969 22.625 L 317.691406 22.625 Z M 317.691406 44.773438 "/><g clip-rule="nonzero" clip-path="url(#14dda6de4a)"><path style=" stroke:none;fill-rule:nonzero;fill:#231f20;fill-opacity:1;" d="M 318.167969 45.25 L 295.066406 45.25 L 295.066406 22.148438 L 318.167969 22.148438 Z M 296.019531 44.296875 L 317.214844 44.296875 L 317.214844 23.105469 L 296.019531 23.105469 Z M 296.019531 44.296875 "/></g><path style=" stroke:none;fill-rule:nonzero;fill:#231f20;fill-opacity:1;" d="M 295.542969 44.773438 L 273.394531 44.773438 L 273.394531 22.625 L 295.542969 22.625 Z M 295.542969 44.773438 "/><g clip-rule="nonzero" clip-path="url(#f24c3fcf8b)"><path style=" stroke:none;fill-rule:nonzero;fill:#231f20;fill-opacity:1;" d="M 296.019531 45.25 L 272.917969 45.25 L 272.917969 22.148438 L 296.019531 22.148438 Z M 273.875 44.296875 L 295.066406 44.296875 L 295.066406 23.105469 L 273.875 23.105469 Z M 273.875 44.296875 "/></g><path style=" stroke:none;fill-rule:nonzero;fill:#faf9f5;fill-opacity:1;" d="M 361.984375 44.773438 L 339.835938 44.773438 L 339.835938 22.625 L 361.984375 22.625 Z M 361.984375 44.773438 "/><g clip-rule="nonzero" clip-path="url(#393ef489b8)"><path style=" stroke:none;fill-rule:nonzero;fill:#231f20;fill-opacity:1;" d="M 362.460938 45.25 L 339.359375 45.25 L 339.359375 22.148438 L 362.460938 22.148438 Z M 340.3125 44.296875 L 361.507812 44.296875 L 361.507812 23.105469 L 340.3125 23.105469 Z M 340.3125 44.296875 "/></g><path style=" stroke:none;fill-rule:nonzero;fill:#231f20;fill-opacity:1;" d="M 339.835938 44.773438 L 317.691406 44.773438 L 317.691406 22.625 L 339.835938 22.625 Z M 339.835938 44.773438 "/><g clip-rule="nonzero" clip-path="url(#171afb65a7)"><path style=" stroke:none;fill-rule:nonzero;fill:#231f20;fill-opacity:1;" d="M 340.3125 45.25 L 317.214844 45.25 L 317.214844 22.148438 L 340.3125 22.148438 Z M 318.167969 44.296875 L 339.359375 44.296875 L 339.359375 23.105469 L 318.167969 23.105469 Z M 318.167969 44.296875 "/></g><path style=" stroke:none;fill-rule:nonzero;fill:#faf9f5;fill-opacity:1;" d="M 407.914062 0.480469 L 430.058594 0.480469 L 430.058594 22.625 L 407.914062 22.625 Z M 407.914062 0.480469 "/><path style=" stroke:none;fill-rule:nonzero;fill:#231f20;fill-opacity:1;" d="M 430.535156 23.105469 L 407.4375 23.105469 L 407.4375 0.00390625 L 430.535156 0.00390625 Z M 408.390625 22.148438 L 429.582031 22.148438 L 429.582031 0.957031 L 408.390625 0.957031 Z M 408.390625 22.148438 "/><path style=" stroke:none;fill-rule:nonzero;fill:#231f20;fill-opacity:1;" d="M 430.058594 0.480469 L 452.207031 0.480469 L 452.207031 22.625 L 430.058594 22.625 Z M 430.058594 0.480469 "/><path style=" stroke:none;fill-rule:nonzero;fill:#231f20;fill-opacity:1;" d="M 452.683594 23.105469 L 429.582031 23.105469 L 429.582031 0.00390625 L 452.683594 0.00390625 Z M 430.535156 22.148438 L 451.730469 22.148438 L 451.730469 0.957031 L 430.535156 0.957031 Z M 430.535156 22.148438 "/><path style=" stroke:none;fill-rule:nonzero;fill:#faf9f5;fill-opacity:1;" d="M 452.207031 0.480469 L 474.355469 0.480469 L 474.355469 22.625 L 452.207031 22.625 Z M 452.207031 0.480469 "/><path style=" stroke:none;fill-rule:nonzero;fill:#231f20;fill-opacity:1;" d="M 474.832031 23.105469 L 451.730469 23.105469 L 451.730469 0.00390625 L 474.832031 0.00390625 Z M 452.683594 22.148438 L 473.878906 22.148438 L 473.878906 0.957031 L 452.683594 0.957031 Z M 452.683594 22.148438 "/><path style=" stroke:none;fill-rule:nonzero;fill:#231f20;fill-opacity:1;" d="M 474.355469 0.480469 L 496.5 0.480469 L 496.5 22.625 L 474.355469 22.625 Z M 474.355469 0.480469 "/><path style=" stroke:none;fill-rule:nonzero;fill:#231f20;fill-opacity:1;" d="M 496.976562 23.105469 L 473.878906 23.105469 L 473.878906 0.00390625 L 496.976562 0.00390625 Z M 474.832031 22.148438 L 496.023438 22.148438 L 496.023438 0.957031 L 474.832031 0.957031 Z M 474.832031 22.148438 "/><path style=" stroke:none;fill-rule:nonzero;fill:#faf9f5;fill-opacity:1;" d="M 496.5 0.480469 L 518.648438 0.480469 L 518.648438 22.625 L 496.5 22.625 Z M 496.5 0.480469 "/><path style=" stroke:none;fill-rule:nonzero;fill:#231f20;fill-opacity:1;" d="M 519.125 23.105469 L 496.023438 23.105469 L 496.023438 0.00390625 L 519.125 0.00390625 Z M 496.976562 22.148438 L 518.171875 22.148438 L 518.171875 0.957031 L 496.976562 0.957031 Z M 496.976562 22.148438 "/><path style=" stroke:none;fill-rule:nonzero;fill:#231f20;fill-opacity:1;" d="M 518.648438 0.480469 L 540.792969 0.480469 L 540.792969 22.625 L 518.648438 22.625 Z M 518.648438 0.480469 "/><g clip-rule="nonzero" clip-path="url(#18df74c3bc)"><path style=" stroke:none;fill-rule:nonzero;fill:#231f20;fill-opacity:1;" d="M 541.273438 23.105469 L 518.171875 23.105469 L 518.171875 0.00390625 L 541.273438 0.00390625 Z M 519.125 22.148438 L 540.316406 22.148438 L 540.316406 0.957031 L 519.125 0.957031 Z M 519.125 22.148438 "/></g><path style=" stroke:none;fill-rule:nonzero;fill:#faf9f5;fill-opacity:1;" d="M 452.207031 44.773438 L 430.058594 44.773438 L 430.058594 22.625 L 452.207031 22.625 Z M 452.207031 44.773438 "/><g clip-rule="nonzero" clip-path="url(#446b7f75ae)"><path style=" stroke:none;fill-rule:nonzero;fill:#231f20;fill-opacity:1;" d="M 452.683594 45.25 L 429.582031 45.25 L 429.582031 22.148438 L 452.683594 22.148438 Z M 430.535156 44.296875 L 451.730469 44.296875 L 451.730469 23.105469 L 430.535156 23.105469 Z M 430.535156 44.296875 "/></g><path style=" stroke:none;fill-rule:nonzero;fill:#231f20;fill-opacity:1;" d="M 385.765625 0.480469 L 407.914062 0.480469 L 407.914062 22.625 L 385.765625 22.625 Z M 385.765625 0.480469 "/><path style=" stroke:none;fill-rule:nonzero;fill:#231f20;fill-opacity:1;" d="M 408.390625 23.105469 L 385.289062 23.105469 L 385.289062 0.00390625 L 408.390625 0.00390625 Z M 386.242188 22.148438 L 407.4375 22.148438 L 407.4375 0.957031 L 386.242188 0.957031 Z M 386.242188 22.148438 "/><path style=" stroke:none;fill-rule:nonzero;fill:#faf9f5;fill-opacity:1;" d="M 407.914062 44.773438 L 385.765625 44.773438 L 385.765625 22.625 L 407.914062 22.625 Z M 407.914062 44.773438 "/><g clip-rule="nonzero" clip-path="url(#67b7fecdb9)"><path style=" stroke:none;fill-rule:nonzero;fill:#231f20;fill-opacity:1;" d="M 408.390625 45.25 L 385.289062 45.25 L 385.289062 22.148438 L 408.390625 22.148438 Z M 386.242188 44.296875 L 407.4375 44.296875 L 407.4375 23.105469 L 386.242188 23.105469 Z M 386.242188 44.296875 "/></g><path style=" stroke:none;fill-rule:nonzero;fill:#231f20;fill-opacity:1;" d="M 430.058594 44.773438 L 407.914062 44.773438 L 407.914062 22.625 L 430.058594 22.625 Z M 430.058594 44.773438 "/><g clip-rule="nonzero" clip-path="url(#b1e90af012)"><path style=" stroke:none;fill-rule:nonzero;fill:#231f20;fill-opacity:1;" d="M 430.535156 45.25 L 407.4375 45.25 L 407.4375 22.148438 L 430.535156 22.148438 Z M 408.390625 44.296875 L 429.582031 44.296875 L 429.582031 23.105469 L 408.390625 23.105469 Z M 408.390625 44.296875 "/></g><g clip-rule="nonzero" clip-path="url(#c7be0ccaba)"><path style=" stroke:none;fill-rule:nonzero;fill:#faf9f5;fill-opacity:1;" d="M 363.621094 0.480469 L 385.765625 0.480469 L 385.765625 22.625 L 363.621094 22.625 Z M 363.621094 0.480469 "/></g><g clip-rule="nonzero" clip-path="url(#66f9cb0fde)"><path style=" stroke:none;fill-rule:nonzero;fill:#231f20;fill-opacity:1;" d="M 386.242188 23.105469 L 363.140625 23.105469 L 363.140625 0.00390625 L 386.242188 0.00390625 Z M 364.097656 22.148438 L 385.289062 22.148438 L 385.289062 0.957031 L 364.097656 0.957031 Z M 364.097656 22.148438 "/></g><g clip-rule="nonzero" clip-path="url(#292ac09f0b)"><path style=" stroke:none;fill-rule:nonzero;fill:#231f20;fill-opacity:1;" d="M 385.765625 44.773438 L 363.621094 44.773438 L 363.621094 22.625 L 385.765625 22.625 Z M 385.765625 44.773438 "/></g><g clip-rule="nonzero" clip-path="url(#e3552687d0)"><path style=" stroke:none;fill-rule:nonzero;fill:#231f20;fill-opacity:1;" d="M 386.242188 45.25 L 363.140625 45.25 L 363.140625 22.148438 L 386.242188 22.148438 Z M 364.097656 44.296875 L 385.289062 44.296875 L 385.289062 23.105469 L 364.097656 23.105469 Z M 364.097656 44.296875 "/></g><path style=" stroke:none;fill-rule:nonzero;fill:#faf9f5;fill-opacity:1;" d="M 496.5 44.773438 L 474.355469 44.773438 L 474.355469 22.625 L 496.5 22.625 Z M 496.5 44.773438 "/><g clip-rule="nonzero" clip-path="url(#1157745c75)"><path style=" stroke:none;fill-rule:nonzero;fill:#231f20;fill-opacity:1;" d="M 496.976562 45.25 L 473.878906 45.25 L 473.878906 22.148438 L 496.976562 22.148438 Z M 474.832031 44.296875 L 496.023438 44.296875 L 496.023438 23.105469 L 474.832031 23.105469 Z M 474.832031 44.296875 "/></g><path style=" stroke:none;fill-rule:nonzero;fill:#231f20;fill-opacity:1;" d="M 474.355469 44.773438 L 452.207031 44.773438 L 452.207031 22.625 L 474.355469 22.625 Z M 474.355469 44.773438 "/><g clip-rule="nonzero" clip-path="url(#fc4776626f)"><path style=" stroke:none;fill-rule:nonzero;fill:#231f20;fill-opacity:1;" d="M 474.832031 45.25 L 451.730469 45.25 L 451.730469 22.148438 L 474.832031 22.148438 Z M 452.683594 44.296875 L 473.878906 44.296875 L 473.878906 23.105469 L 452.683594 23.105469 Z M 452.683594 44.296875 "/></g><path style=" stroke:none;fill-rule:nonzero;fill:#faf9f5;fill-opacity:1;" d="M 540.792969 44.773438 L 518.648438 44.773438 L 518.648438 22.625 L 540.792969 22.625 Z M 540.792969 44.773438 "/><g clip-rule="nonzero" clip-path="url(#393db275ee)"><path style=" stroke:none;fill-rule:nonzero;fill:#231f20;fill-opacity:1;" d="M 541.273438 45.25 L 518.171875 45.25 L 518.171875 22.148438 L 541.273438 22.148438 Z M 519.125 44.296875 L 540.316406 44.296875 L 540.316406 23.105469 L 519.125 23.105469 Z M 519.125 44.296875 "/></g><path style=" stroke:none;fill-rule:nonzero;fill:#231f20;fill-opacity:1;" d="M 518.648438 44.773438 L 496.5 44.773438 L 496.5 22.625 L 518.648438 22.625 Z M 518.648438 44.773438 "/><g clip-rule="nonzero" clip-path="url(#91011a1e31)"><path style=" stroke:none;fill-rule:nonzero;fill:#231f20;fill-opacity:1;" d="M 519.125 45.25 L 496.023438 45.25 L 496.023438 22.148438 L 519.125 22.148438 Z M 496.976562 44.296875 L 518.171875 44.296875 L 518.171875 23.105469 L 496.976562 23.105469 Z M 496.976562 44.296875 "/></g><path style=" stroke:none;fill-rule:nonzero;fill:#faf9f5;fill-opacity:1;" d="M 586.722656 0.480469 L 608.871094 0.480469 L 608.871094 22.625 L 586.722656 22.625 Z M 586.722656 0.480469 "/><path style=" stroke:none;fill-rule:nonzero;fill:#231f20;fill-opacity:1;" d="M 609.347656 23.105469 L 586.246094 23.105469 L 586.246094 0.00390625 L 609.347656 0.00390625 Z M 587.199219 22.148438 L 608.394531 22.148438 L 608.394531 0.957031 L 587.199219 0.957031 Z M 587.199219 22.148438 "/><path style=" stroke:none;fill-rule:nonzero;fill:#231f20;fill-opacity:1;" d="M 608.871094 0.480469 L 631.019531 0.480469 L 631.019531 22.625 L 608.871094 22.625 Z M 608.871094 0.480469 "/><path style=" stroke:none;fill-rule:nonzero;fill:#231f20;fill-opacity:1;" d="M 631.496094 23.105469 L 608.394531 23.105469 L 608.394531 0.00390625 L 631.496094 0.00390625 Z M 609.347656 22.148438 L 630.539062 22.148438 L 630.539062 0.957031 L 609.347656 0.957031 Z M 609.347656 22.148438 "/><path style=" stroke:none;fill-rule:nonzero;fill:#faf9f5;fill-opacity:1;" d="M 631.019531 0.480469 L 653.164062 0.480469 L 653.164062 22.625 L 631.019531 22.625 Z M 631.019531 0.480469 "/><path style=" stroke:none;fill-rule:nonzero;fill:#231f20;fill-opacity:1;" d="M 653.640625 23.105469 L 630.539062 23.105469 L 630.539062 0.00390625 L 653.640625 0.00390625 Z M 631.496094 22.148438 L 652.6875 22.148438 L 652.6875 0.957031 L 631.496094 0.957031 Z M 631.496094 22.148438 "/><path style=" stroke:none;fill-rule:nonzero;fill:#231f20;fill-opacity:1;" d="M 653.164062 0.480469 L 675.3125 0.480469 L 675.3125 22.625 L 653.164062 22.625 Z M 653.164062 0.480469 "/><path style=" stroke:none;fill-rule:nonzero;fill:#231f20;fill-opacity:1;" d="M 675.789062 23.105469 L 652.6875 23.105469 L 652.6875 0.00390625 L 675.789062 0.00390625 Z M 653.640625 22.148438 L 674.835938 22.148438 L 674.835938 0.957031 L 653.640625 0.957031 Z M 653.640625 22.148438 "/><path style=" stroke:none;fill-rule:nonzero;fill:#faf9f5;fill-opacity:1;" d="M 675.3125 0.480469 L 697.457031 0.480469 L 697.457031 22.625 L 675.3125 22.625 Z M 675.3125 0.480469 "/><path style=" stroke:none;fill-rule:nonzero;fill:#231f20;fill-opacity:1;" d="M 697.933594 23.105469 L 674.835938 23.105469 L 674.835938 0.00390625 L 697.933594 0.00390625 Z M 675.789062 22.148438 L 696.980469 22.148438 L 696.980469 0.957031 L 675.789062 0.957031 Z M 675.789062 22.148438 "/><path style=" stroke:none;fill-rule:nonzero;fill:#231f20;fill-opacity:1;" d="M 697.457031 0.480469 L 719.605469 0.480469 L 719.605469 22.625 L 697.457031 22.625 Z M 697.457031 0.480469 "/><g clip-rule="nonzero" clip-path="url(#733068b14c)"><path style=" stroke:none;fill-rule:nonzero;fill:#231f20;fill-opacity:1;" d="M 720.082031 23.105469 L 696.980469 23.105469 L 696.980469 0.00390625 L 720.082031 0.00390625 Z M 697.933594 22.148438 L 719.128906 22.148438 L 719.128906 0.957031 L 697.933594 0.957031 Z M 697.933594 22.148438 "/></g><path style=" stroke:none;fill-rule:nonzero;fill:#faf9f5;fill-opacity:1;" d="M 631.019531 44.773438 L 608.871094 44.773438 L 608.871094 22.625 L 631.019531 22.625 Z M 631.019531 44.773438 "/><g clip-rule="nonzero" clip-path="url(#a80056c1c0)"><path style=" stroke:none;fill-rule:nonzero;fill:#231f20;fill-opacity:1;" d="M 631.496094 45.25 L 608.394531 45.25 L 608.394531 22.148438 L 631.496094 22.148438 Z M 609.347656 44.296875 L 630.539062 44.296875 L 630.539062 23.105469 L 609.347656 23.105469 Z M 609.347656 44.296875 "/></g><path style=" stroke:none;fill-rule:nonzero;fill:#231f20;fill-opacity:1;" d="M 564.578125 0.480469 L 586.722656 0.480469 L 586.722656 22.625 L 564.578125 22.625 Z M 564.578125 0.480469 "/><path style=" stroke:none;fill-rule:nonzero;fill:#231f20;fill-opacity:1;" d="M 587.199219 23.105469 L 564.101562 23.105469 L 564.101562 0.00390625 L 587.199219 0.00390625 Z M 565.054688 22.148438 L 586.246094 22.148438 L 586.246094 0.957031 L 565.054688 0.957031 Z M 565.054688 22.148438 "/><path style=" stroke:none;fill-rule:nonzero;fill:#faf9f5;fill-opacity:1;" d="M 586.722656 44.773438 L 564.578125 44.773438 L 564.578125 22.625 L 586.722656 22.625 Z M 586.722656 44.773438 "/><g clip-rule="nonzero" clip-path="url(#127b855e7f)"><path style=" stroke:none;fill-rule:nonzero;fill:#231f20;fill-opacity:1;" d="M 587.199219 45.25 L 564.101562 45.25 L 564.101562 22.148438 L 587.199219 22.148438 Z M 565.054688 44.296875 L 586.246094 44.296875 L 586.246094 23.105469 L 565.054688 23.105469 Z M 565.054688 44.296875 "/></g><path style=" stroke:none;fill-rule:nonzero;fill:#231f20;fill-opacity:1;" d="M 608.871094 44.773438 L 586.722656 44.773438 L 586.722656 22.625 L 608.871094 22.625 Z M 608.871094 44.773438 "/><g clip-rule="nonzero" clip-path="url(#0546b7bef4)"><path style=" stroke:none;fill-rule:nonzero;fill:#231f20;fill-opacity:1;" d="M 609.347656 45.25 L 586.246094 45.25 L 586.246094 22.148438 L 609.347656 22.148438 Z M 587.199219 44.296875 L 608.394531 44.296875 L 608.394531 23.105469 L 587.199219 23.105469 Z M 587.199219 44.296875 "/></g><path style=" stroke:none;fill-rule:nonzero;fill:#faf9f5;fill-opacity:1;" d="M 542.429688 0.480469 L 564.578125 0.480469 L 564.578125 22.625 L 542.429688 22.625 Z M 542.429688 0.480469 "/><g clip-rule="nonzero" clip-path="url(#d6c0133e22)"><path style=" stroke:none;fill-rule:nonzero;fill:#231f20;fill-opacity:1;" d="M 565.054688 23.105469 L 541.953125 23.105469 L 541.953125 0.00390625 L 565.054688 0.00390625 Z M 542.90625 22.148438 L 564.101562 22.148438 L 564.101562 0.957031 L 542.90625 0.957031 Z M 542.90625 22.148438 "/></g><path style=" stroke:none;fill-rule:nonzero;fill:#231f20;fill-opacity:1;" d="M 564.578125 44.773438 L 542.429688 44.773438 L 542.429688 22.625 L 564.578125 22.625 Z M 564.578125 44.773438 "/><g clip-rule="nonzero" clip-path="url(#178615dcd4)"><path style=" stroke:none;fill-rule:nonzero;fill:#231f20;fill-opacity:1;" d="M 565.054688 45.25 L 541.953125 45.25 L 541.953125 22.148438 L 565.054688 22.148438 Z M 542.90625 44.296875 L 564.101562 44.296875 L 564.101562 23.105469 L 542.90625 23.105469 Z M 542.90625 44.296875 "/></g><path style=" stroke:none;fill-rule:nonzero;fill:#faf9f5;fill-opacity:1;" d="M 675.3125 44.773438 L 653.164062 44.773438 L 653.164062 22.625 L 675.3125 22.625 Z M 675.3125 44.773438 "/><g clip-rule="nonzero" clip-path="url(#58d01a9ad7)"><path style=" stroke:none;fill-rule:nonzero;fill:#231f20;fill-opacity:1;" d="M 675.789062 45.25 L 652.6875 45.25 L 652.6875 22.148438 L 675.789062 22.148438 Z M 653.640625 44.296875 L 674.835938 44.296875 L 674.835938 23.105469 L 653.640625 23.105469 Z M 653.640625 44.296875 "/></g><path style=" stroke:none;fill-rule:nonzero;fill:#231f20;fill-opacity:1;" d="M 653.164062 44.773438 L 631.019531 44.773438 L 631.019531 22.625 L 653.164062 22.625 Z M 653.164062 44.773438 "/><g clip-rule="nonzero" clip-path="url(#38a594c4f8)"><path style=" stroke:none;fill-rule:nonzero;fill:#231f20;fill-opacity:1;" d="M 653.640625 45.25 L 630.539062 45.25 L 630.539062 22.148438 L 653.640625 22.148438 Z M 631.496094 44.296875 L 652.6875 44.296875 L 652.6875 23.105469 L 631.496094 23.105469 Z M 631.496094 44.296875 "/></g><path style=" stroke:none;fill-rule:nonzero;fill:#faf9f5;fill-opacity:1;" d="M 719.605469 44.773438 L 697.457031 44.773438 L 697.457031 22.625 L 719.605469 22.625 Z M 719.605469 44.773438 "/><g clip-rule="nonzero" clip-path="url(#15de673f71)"><path style=" stroke:none;fill-rule:nonzero;fill:#231f20;fill-opacity:1;" d="M 720.082031 45.25 L 696.980469 45.25 L 696.980469 22.148438 L 720.082031 22.148438 Z M 697.933594 44.296875 L 719.128906 44.296875 L 719.128906 23.105469 L 697.933594 23.105469 Z M 697.933594 44.296875 "/></g><path style=" stroke:none;fill-rule:nonzero;fill:#231f20;fill-opacity:1;" d="M 697.457031 44.773438 L 675.3125 44.773438 L 675.3125 22.625 L 697.457031 22.625 Z M 697.457031 44.773438 "/><g clip-rule="nonzero" clip-path="url(#efe7d6897a)"><path style=" stroke:none;fill-rule:nonzero;fill:#231f20;fill-opacity:1;" d="M 697.933594 45.25 L 674.835938 45.25 L 674.835938 22.148438 L 697.933594 22.148438 Z M 675.789062 44.296875 L 696.980469 44.296875 L 696.980469 23.105469 L 675.789062 23.105469 Z M 675.789062 44.296875 "/></g><path style=" stroke:none;fill-rule:nonzero;fill:#faf9f5;fill-opacity:1;" d="M 765.535156 0.480469 L 787.679688 0.480469 L 787.679688 22.625 L 765.535156 22.625 Z M 765.535156 0.480469 "/><path style=" stroke:none;fill-rule:nonzero;fill:#231f20;fill-opacity:1;" d="M 788.160156 23.105469 L 765.058594 23.105469 L 765.058594 0.00390625 L 788.160156 0.00390625 Z M 766.011719 22.148438 L 787.203125 22.148438 L 787.203125 0.957031 L 766.011719 0.957031 Z M 766.011719 22.148438 "/><path style=" stroke:none;fill-rule:nonzero;fill:#231f20;fill-opacity:1;" d="M 787.679688 0.480469 L 809.828125 0.480469 L 809.828125 22.625 L 787.679688 22.625 Z M 787.679688 0.480469 "/><path style=" stroke:none;fill-rule:nonzero;fill:#231f20;fill-opacity:1;" d="M 810.304688 23.105469 L 787.203125 23.105469 L 787.203125 0.00390625 L 810.304688 0.00390625 Z M 788.160156 22.148438 L 809.351562 22.148438 L 809.351562 0.957031 L 788.160156 0.957031 Z M 788.160156 22.148438 "/><path style=" stroke:none;fill-rule:nonzero;fill:#faf9f5;fill-opacity:1;" d="M 809.828125 0.480469 L 831.976562 0.480469 L 831.976562 22.625 L 809.828125 22.625 Z M 809.828125 0.480469 "/><path style=" stroke:none;fill-rule:nonzero;fill:#231f20;fill-opacity:1;" d="M 832.453125 23.105469 L 809.351562 23.105469 L 809.351562 0.00390625 L 832.453125 0.00390625 Z M 810.304688 22.148438 L 831.5 22.148438 L 831.5 0.957031 L 810.304688 0.957031 Z M 810.304688 22.148438 "/><path style=" stroke:none;fill-rule:nonzero;fill:#231f20;fill-opacity:1;" d="M 831.976562 0.480469 L 854.121094 0.480469 L 854.121094 22.625 L 831.976562 22.625 Z M 831.976562 0.480469 "/><path style=" stroke:none;fill-rule:nonzero;fill:#231f20;fill-opacity:1;" d="M 854.597656 23.105469 L 831.5 23.105469 L 831.5 0.00390625 L 854.597656 0.00390625 Z M 832.453125 22.148438 L 853.644531 22.148438 L 853.644531 0.957031 L 832.453125 0.957031 Z M 832.453125 22.148438 "/><path style=" stroke:none;fill-rule:nonzero;fill:#faf9f5;fill-opacity:1;" d="M 854.121094 0.480469 L 876.269531 0.480469 L 876.269531 22.625 L 854.121094 22.625 Z M 854.121094 0.480469 "/><path style=" stroke:none;fill-rule:nonzero;fill:#231f20;fill-opacity:1;" d="M 876.746094 23.105469 L 853.644531 23.105469 L 853.644531 0.00390625 L 876.746094 0.00390625 Z M 854.597656 22.148438 L 875.792969 22.148438 L 875.792969 0.957031 L 854.597656 0.957031 Z M 854.597656 22.148438 "/><path style=" stroke:none;fill-rule:nonzero;fill:#231f20;fill-opacity:1;" d="M 876.269531 0.480469 L 898.414062 0.480469 L 898.414062 22.625 L 876.269531 22.625 Z M 876.269531 0.480469 "/><path style=" stroke:none;fill-rule:nonzero;fill:#231f20;fill-opacity:1;" d="M 898.894531 23.105469 L 875.792969 23.105469 L 875.792969 0.00390625 L 898.894531 0.00390625 Z M 876.746094 22.148438 L 897.9375 22.148438 L 897.9375 0.957031 L 876.746094 0.957031 Z M 876.746094 22.148438 "/><path style=" stroke:none;fill-rule:nonzero;fill:#faf9f5;fill-opacity:1;" d="M 809.828125 44.773438 L 787.679688 44.773438 L 787.679688 22.625 L 809.828125 22.625 Z M 809.828125 44.773438 "/><g clip-rule="nonzero" clip-path="url(#51f177b26f)"><path style=" stroke:none;fill-rule:nonzero;fill:#231f20;fill-opacity:1;" d="M 810.304688 45.25 L 787.203125 45.25 L 787.203125 22.148438 L 810.304688 22.148438 Z M 788.160156 44.296875 L 809.351562 44.296875 L 809.351562 23.105469 L 788.160156 23.105469 Z M 788.160156 44.296875 "/></g><path style=" stroke:none;fill-rule:nonzero;fill:#231f20;fill-opacity:1;" d="M 743.386719 0.480469 L 765.535156 0.480469 L 765.535156 22.625 L 743.386719 22.625 Z M 743.386719 0.480469 "/><path style=" stroke:none;fill-rule:nonzero;fill:#231f20;fill-opacity:1;" d="M 766.011719 23.105469 L 742.910156 23.105469 L 742.910156 0.00390625 L 766.011719 0.00390625 Z M 743.863281 22.148438 L 765.058594 22.148438 L 765.058594 0.957031 L 743.863281 0.957031 Z M 743.863281 22.148438 "/><path style=" stroke:none;fill-rule:nonzero;fill:#faf9f5;fill-opacity:1;" d="M 765.535156 44.773438 L 743.386719 44.773438 L 743.386719 22.625 L 765.535156 22.625 Z M 765.535156 44.773438 "/><g clip-rule="nonzero" clip-path="url(#b48af64013)"><path style=" stroke:none;fill-rule:nonzero;fill:#231f20;fill-opacity:1;" d="M 766.011719 45.25 L 742.910156 45.25 L 742.910156 22.148438 L 766.011719 22.148438 Z M 743.863281 44.296875 L 765.058594 44.296875 L 765.058594 23.105469 L 743.863281 23.105469 Z M 743.863281 44.296875 "/></g><path style=" stroke:none;fill-rule:nonzero;fill:#231f20;fill-opacity:1;" d="M 787.679688 44.773438 L 765.535156 44.773438 L 765.535156 22.625 L 787.679688 22.625 Z M 787.679688 44.773438 "/><g clip-rule="nonzero" clip-path="url(#7b6483c810)"><path style=" stroke:none;fill-rule:nonzero;fill:#231f20;fill-opacity:1;" d="M 788.160156 45.25 L 765.058594 45.25 L 765.058594 22.148438 L 788.160156 22.148438 Z M 766.011719 44.296875 L 787.203125 44.296875 L 787.203125 23.105469 L 766.011719 23.105469 Z M 766.011719 44.296875 "/></g><path style=" stroke:none;fill-rule:nonzero;fill:#faf9f5;fill-opacity:1;" d="M 721.242188 0.480469 L 743.386719 0.480469 L 743.386719 22.625 L 721.242188 22.625 Z M 721.242188 0.480469 "/><g clip-rule="nonzero" clip-path="url(#1014a8a707)"><path style=" stroke:none;fill-rule:nonzero;fill:#231f20;fill-opacity:1;" d="M 743.863281 23.105469 L 720.765625 23.105469 L 720.765625 0.00390625 L 743.863281 0.00390625 Z M 721.71875 22.148438 L 742.910156 22.148438 L 742.910156 0.957031 L 721.71875 0.957031 Z M 721.71875 22.148438 "/></g><path style=" stroke:none;fill-rule:nonzero;fill:#231f20;fill-opacity:1;" d="M 743.386719 44.773438 L 721.242188 44.773438 L 721.242188 22.625 L 743.386719 22.625 Z M 743.386719 44.773438 "/><g clip-rule="nonzero" clip-path="url(#d9333886c2)"><path style=" stroke:none;fill-rule:nonzero;fill:#231f20;fill-opacity:1;" d="M 743.863281 45.25 L 720.765625 45.25 L 720.765625 22.148438 L 743.863281 22.148438 Z M 721.71875 44.296875 L 742.910156 44.296875 L 742.910156 23.105469 L 721.71875 23.105469 Z M 721.71875 44.296875 "/></g><path style=" stroke:none;fill-rule:nonzero;fill:#faf9f5;fill-opacity:1;" d="M 854.121094 44.773438 L 831.976562 44.773438 L 831.976562 22.625 L 854.121094 22.625 Z M 854.121094 44.773438 "/><g clip-rule="nonzero" clip-path="url(#0763a4b8f1)"><path style=" stroke:none;fill-rule:nonzero;fill:#231f20;fill-opacity:1;" d="M 854.597656 45.25 L 831.5 45.25 L 831.5 22.148438 L 854.597656 22.148438 Z M 832.453125 44.296875 L 853.644531 44.296875 L 853.644531 23.105469 L 832.453125 23.105469 Z M 832.453125 44.296875 "/></g><path style=" stroke:none;fill-rule:nonzero;fill:#231f20;fill-opacity:1;" d="M 831.976562 44.773438 L 809.828125 44.773438 L 809.828125 22.625 L 831.976562 22.625 Z M 831.976562 44.773438 "/><g clip-rule="nonzero" clip-path="url(#586503415f)"><path style=" stroke:none;fill-rule:nonzero;fill:#231f20;fill-opacity:1;" d="M 832.453125 45.25 L 809.351562 45.25 L 809.351562 22.148438 L 832.453125 22.148438 Z M 810.304688 44.296875 L 831.5 44.296875 L 831.5 23.105469 L 810.304688 23.105469 Z M 810.304688 44.296875 "/></g><path style=" stroke:none;fill-rule:nonzero;fill:#faf9f5;fill-opacity:1;" d="M 898.414062 44.773438 L 876.269531 44.773438 L 876.269531 22.625 L 898.414062 22.625 Z M 898.414062 44.773438 "/><g clip-rule="nonzero" clip-path="url(#33efb97edf)"><path style=" stroke:none;fill-rule:nonzero;fill:#231f20;fill-opacity:1;" d="M 898.894531 45.25 L 875.792969 45.25 L 875.792969 22.148438 L 898.894531 22.148438 Z M 876.746094 44.296875 L 897.9375 44.296875 L 897.9375 23.105469 L 876.746094 23.105469 Z M 876.746094 44.296875 "/></g><path style=" stroke:none;fill-rule:nonzero;fill:#231f20;fill-opacity:1;" d="M 876.269531 44.773438 L 854.121094 44.773438 L 854.121094 22.625 L 876.269531 22.625 Z M 876.269531 44.773438 "/><g clip-rule="nonzero" clip-path="url(#5fd9348445)"><path style=" stroke:none;fill-rule:nonzero;fill:#231f20;fill-opacity:1;" d="M 876.746094 45.25 L 853.644531 45.25 L 853.644531 22.148438 L 876.746094 22.148438 Z M 854.597656 44.296875 L 875.792969 44.296875 L 875.792969 23.105469 L 854.597656 23.105469 Z M 854.597656 44.296875 "/></g><path style=" stroke:none;fill-rule:nonzero;fill:#faf9f5;fill-opacity:1;" d="M 944.34375 0.480469 L 966.492188 0.480469 L 966.492188 22.625 L 944.34375 22.625 Z M 944.34375 0.480469 "/><path style=" stroke:none;fill-rule:nonzero;fill:#231f20;fill-opacity:1;" d="M 966.96875 23.105469 L 943.867188 23.105469 L 943.867188 0.00390625 L 966.96875 0.00390625 Z M 944.820312 22.148438 L 966.015625 22.148438 L 966.015625 0.957031 L 944.820312 0.957031 Z M 944.820312 22.148438 "/><path style=" stroke:none;fill-rule:nonzero;fill:#231f20;fill-opacity:1;" d="M 966.492188 0.480469 L 988.640625 0.480469 L 988.640625 22.625 L 966.492188 22.625 Z M 966.492188 0.480469 "/><path style=" stroke:none;fill-rule:nonzero;fill:#231f20;fill-opacity:1;" d="M 989.117188 23.105469 L 966.015625 23.105469 L 966.015625 0.00390625 L 989.117188 0.00390625 Z M 966.96875 22.148438 L 988.160156 22.148438 L 988.160156 0.957031 L 966.96875 0.957031 Z M 966.96875 22.148438 "/><path style=" stroke:none;fill-rule:nonzero;fill:#faf9f5;fill-opacity:1;" d="M 988.640625 0.480469 L 1010.785156 0.480469 L 1010.785156 22.625 L 988.640625 22.625 Z M 988.640625 0.480469 "/><path style=" stroke:none;fill-rule:nonzero;fill:#231f20;fill-opacity:1;" d="M 1011.261719 23.105469 L 988.160156 23.105469 L 988.160156 0.00390625 L 1011.261719 0.00390625 Z M 989.117188 22.148438 L 1010.308594 22.148438 L 1010.308594 0.957031 L 989.117188 0.957031 Z M 989.117188 22.148438 "/><path style=" stroke:none;fill-rule:nonzero;fill:#231f20;fill-opacity:1;" d="M 1010.785156 0.480469 L 1032.933594 0.480469 L 1032.933594 22.625 L 1010.785156 22.625 Z M 1010.785156 0.480469 "/><path style=" stroke:none;fill-rule:nonzero;fill:#231f20;fill-opacity:1;" d="M 1033.410156 23.105469 L 1010.308594 23.105469 L 1010.308594 0.00390625 L 1033.410156 0.00390625 Z M 1011.261719 22.148438 L 1032.457031 22.148438 L 1032.457031 0.957031 L 1011.261719 0.957031 Z M 1011.261719 22.148438 "/><path style=" stroke:none;fill-rule:nonzero;fill:#faf9f5;fill-opacity:1;" d="M 1032.933594 0.480469 L 1055.078125 0.480469 L 1055.078125 22.625 L 1032.933594 22.625 Z M 1032.933594 0.480469 "/><path style=" stroke:none;fill-rule:nonzero;fill:#231f20;fill-opacity:1;" d="M 1055.554688 23.105469 L 1032.457031 23.105469 L 1032.457031 0.00390625 L 1055.554688 0.00390625 Z M 1033.410156 22.148438 L 1054.601562 22.148438 L 1054.601562 0.957031 L 1033.410156 0.957031 Z M 1033.410156 22.148438 "/><path style=" stroke:none;fill-rule:nonzero;fill:#231f20;fill-opacity:1;" d="M 1055.078125 0.480469 L 1077.226562 0.480469 L 1077.226562 22.625 L 1055.078125 22.625 Z M 1055.078125 0.480469 "/><path style=" stroke:none;fill-rule:nonzero;fill:#231f20;fill-opacity:1;" d="M 1077.703125 23.105469 L 1054.601562 23.105469 L 1054.601562 0.00390625 L 1077.703125 0.00390625 Z M 1055.554688 22.148438 L 1076.75 22.148438 L 1076.75 0.957031 L 1055.554688 0.957031 Z M 1055.554688 22.148438 "/><path style=" stroke:none;fill-rule:nonzero;fill:#faf9f5;fill-opacity:1;" d="M 988.640625 44.773438 L 966.492188 44.773438 L 966.492188 22.625 L 988.640625 22.625 Z M 988.640625 44.773438 "/><g clip-rule="nonzero" clip-path="url(#6f7e9b50a3)"><path style=" stroke:none;fill-rule:nonzero;fill:#231f20;fill-opacity:1;" d="M 989.117188 45.25 L 966.015625 45.25 L 966.015625 22.148438 L 989.117188 22.148438 Z M 966.96875 44.296875 L 988.160156 44.296875 L 988.160156 23.105469 L 966.96875 23.105469 Z M 966.96875 44.296875 "/></g><path style=" stroke:none;fill-rule:nonzero;fill:#231f20;fill-opacity:1;" d="M 922.199219 0.480469 L 944.34375 0.480469 L 944.34375 22.625 L 922.199219 22.625 Z M 922.199219 0.480469 "/><path style=" stroke:none;fill-rule:nonzero;fill:#231f20;fill-opacity:1;" d="M 944.820312 23.105469 L 921.722656 23.105469 L 921.722656 0.00390625 L 944.820312 0.00390625 Z M 922.675781 22.148438 L 943.867188 22.148438 L 943.867188 0.957031 L 922.675781 0.957031 Z M 922.675781 22.148438 "/><path style=" stroke:none;fill-rule:nonzero;fill:#faf9f5;fill-opacity:1;" d="M 944.34375 44.773438 L 922.199219 44.773438 L 922.199219 22.625 L 944.34375 22.625 Z M 944.34375 44.773438 "/><g clip-rule="nonzero" clip-path="url(#0bd219548a)"><path style=" stroke:none;fill-rule:nonzero;fill:#231f20;fill-opacity:1;" d="M 944.820312 45.25 L 921.722656 45.25 L 921.722656 22.148438 L 944.820312 22.148438 Z M 922.675781 44.296875 L 943.867188 44.296875 L 943.867188 23.105469 L 922.675781 23.105469 Z M 922.675781 44.296875 "/></g><path style=" stroke:none;fill-rule:nonzero;fill:#231f20;fill-opacity:1;" d="M 966.492188 44.773438 L 944.34375 44.773438 L 944.34375 22.625 L 966.492188 22.625 Z M 966.492188 44.773438 "/><g clip-rule="nonzero" clip-path="url(#b897a6adf8)"><path style=" stroke:none;fill-rule:nonzero;fill:#231f20;fill-opacity:1;" d="M 966.96875 45.25 L 943.867188 45.25 L 943.867188 22.148438 L 966.96875 22.148438 Z M 944.820312 44.296875 L 966.015625 44.296875 L 966.015625 23.105469 L 944.820312 23.105469 Z M 944.820312 44.296875 "/></g><path style=" stroke:none;fill-rule:nonzero;fill:#faf9f5;fill-opacity:1;" d="M 900.050781 0.480469 L 922.199219 0.480469 L 922.199219 22.625 L 900.050781 22.625 Z M 900.050781 0.480469 "/><g clip-rule="nonzero" clip-path="url(#1a05e0990d)"><path style=" stroke:none;fill-rule:nonzero;fill:#231f20;fill-opacity:1;" d="M 922.675781 23.105469 L 899.574219 23.105469 L 899.574219 0.00390625 L 922.675781 0.00390625 Z M 900.527344 22.148438 L 921.722656 22.148438 L 921.722656 0.957031 L 900.527344 0.957031 Z M 900.527344 22.148438 "/></g><path style=" stroke:none;fill-rule:nonzero;fill:#231f20;fill-opacity:1;" d="M 922.199219 44.773438 L 900.050781 44.773438 L 900.050781 22.625 L 922.199219 22.625 Z M 922.199219 44.773438 "/><g clip-rule="nonzero" clip-path="url(#5335cbbbf6)"><path style=" stroke:none;fill-rule:nonzero;fill:#231f20;fill-opacity:1;" d="M 922.675781 45.25 L 899.574219 45.25 L 899.574219 22.148438 L 922.675781 22.148438 Z M 900.527344 44.296875 L 921.722656 44.296875 L 921.722656 23.105469 L 900.527344 23.105469 Z M 900.527344 44.296875 "/></g><path style=" stroke:none;fill-rule:nonzero;fill:#faf9f5;fill-opacity:1;" d="M 1032.933594 44.773438 L 1010.785156 44.773438 L 1010.785156 22.625 L 1032.933594 22.625 Z M 1032.933594 44.773438 "/><g clip-rule="nonzero" clip-path="url(#2992141676)"><path style=" stroke:none;fill-rule:nonzero;fill:#231f20;fill-opacity:1;" d="M 1033.410156 45.25 L 1010.308594 45.25 L 1010.308594 22.148438 L 1033.410156 22.148438 Z M 1011.261719 44.296875 L 1032.457031 44.296875 L 1032.457031 23.105469 L 1011.261719 23.105469 Z M 1011.261719 44.296875 "/></g><path style=" stroke:none;fill-rule:nonzero;fill:#231f20;fill-opacity:1;" d="M 1010.785156 44.773438 L 988.640625 44.773438 L 988.640625 22.625 L 1010.785156 22.625 Z M 1010.785156 44.773438 "/><g clip-rule="nonzero" clip-path="url(#c0ce0b018a)"><path style=" stroke:none;fill-rule:nonzero;fill:#231f20;fill-opacity:1;" d="M 1011.261719 45.25 L 988.160156 45.25 L 988.160156 22.148438 L 1011.261719 22.148438 Z M 989.117188 44.296875 L 1010.308594 44.296875 L 1010.308594 23.105469 L 989.117188 23.105469 Z M 989.117188 44.296875 "/></g><path style=" stroke:none;fill-rule:nonzero;fill:#faf9f5;fill-opacity:1;" d="M 1077.226562 44.773438 L 1055.078125 44.773438 L 1055.078125 22.625 L 1077.226562 22.625 Z M 1077.226562 44.773438 "/><g clip-rule="nonzero" clip-path="url(#3a6d70c796)"><path style=" stroke:none;fill-rule:nonzero;fill:#231f20;fill-opacity:1;" d="M 1077.703125 45.25 L 1054.601562 45.25 L 1054.601562 22.148438 L 1077.703125 22.148438 Z M 1055.554688 44.296875 L 1076.75 44.296875 L 1076.75 23.105469 L 1055.554688 23.105469 Z M 1055.554688 44.296875 "/></g><path style=" stroke:none;fill-rule:nonzero;fill:#231f20;fill-opacity:1;" d="M 1055.078125 44.773438 L 1032.933594 44.773438 L 1032.933594 22.625 L 1055.078125 22.625 Z M 1055.078125 44.773438 "/><g clip-rule="nonzero" clip-path="url(#95938a4340)"><path style=" stroke:none;fill-rule:nonzero;fill:#231f20;fill-opacity:1;" d="M 1055.554688 45.25 L 1032.457031 45.25 L 1032.457031 22.148438 L 1055.554688 22.148438 Z M 1033.410156 44.296875 L 1054.601562 44.296875 L 1054.601562 23.105469 L 1033.410156 23.105469 Z M 1033.410156 44.296875 "/></g></g></svg>